<svg width="43" height="43" viewBox="0 0 43 43" fill="none" xmlns="http://www.w3.org/2000/svg">
<path d="M35.8252 8.79651e-06C34.5321 0.00135011 33.2634 0.352811 32.1538 1.01711C31.0442 1.6814 30.1351 2.63375 29.5229 3.77313C28.9106 4.91251 28.6181 6.19643 28.6763 7.48867C28.7346 8.78091 29.1414 10.0333 29.8537 11.1129L11.1138 29.8561C9.6328 28.8769 7.84109 28.4826 6.08603 28.7497C4.33096 29.0168 2.73757 29.9263 1.61477 31.3019C0.491976 32.6774 -0.0802354 34.421 0.00907819 36.1946C0.0983917 37.9682 0.842867 39.6454 2.09817 40.9011C3.35347 42.1569 5.03016 42.9016 6.80318 42.9909C8.57619 43.0803 10.3192 42.5079 11.6943 41.3847C13.0694 40.2615 13.9786 38.6676 14.2456 36.912C14.5127 35.1563 14.1185 33.3641 13.1396 31.8826L31.8795 13.1394C32.8114 13.7571 33.8749 14.1481 34.9849 14.281C36.0948 14.414 37.2205 14.2852 38.2718 13.905C39.3232 13.5248 40.271 12.9038 41.0394 12.0916C41.8078 11.2793 42.3755 10.2985 42.6971 9.22751C43.0188 8.15651 43.0853 7.02507 42.8915 5.92373C42.6978 4.82238 42.249 3.78168 41.5811 2.8849C40.9133 1.98811 40.0449 1.26013 39.0454 0.759191C38.0459 0.258251 36.9431 -0.00174325 35.8252 8.79651e-06ZM7.17092 40.1292C4.80123 40.1292 2.87277 38.2001 2.87277 35.8296C2.87277 33.4591 4.80123 31.53 7.17092 31.53C9.54061 31.53 11.4691 33.4591 11.4691 35.8296C11.4691 38.2001 9.54065 40.1292 7.17092 40.1292ZM35.8252 11.4655C33.4555 11.4655 31.5271 9.53644 31.5271 7.16593C31.5271 4.79542 33.4555 2.86637 35.8252 2.86637C38.1949 2.86637 40.1234 4.79546 40.1234 7.16593C40.1234 9.53639 38.1949 11.4655 35.8252 11.4655Z" fill="black"/>
<circle cx="7" cy="36" r="5" fill="black"/>
<circle cx="36" cy="7" r="5" fill="black"/>
</svg>
